HIERARCHY
ROOT SpineBase
{
  OFFSET 0.000000 0.000000 0.000000
  CHANNELS 6 Xposition Yposition Zposition Zrotation Xrotation Yrotation
  JOINT SpineMid
  {
    OFFSET -0.000000 30.051180 0.000000
    CHANNELS 3 Zrotation Xrotation Yrotation
    JOINT SpineShoulder
    {
      OFFSET -0.180923 22.283496 -0.648199
      CHANNELS 3 Zrotation Xrotation Yrotation
      JOINT Neck
      {
        OFFSET -0.094103 7.366757 -0.507971
        CHANNELS 3 Zrotation Xrotation Yrotation
        JOINT Head
        {
          OFFSET -1.952139 11.675002 2.069730
          CHANNELS 3 Zrotation Xrotation Yrotation
          End Site
          {
            OFFSET 0 0 0
          }
        }
      }
      JOINT ShoulderLeft
      {
        OFFSET -8.855604 -3.823439 12.242159
        CHANNELS 3 Zrotation Xrotation Yrotation
        JOINT ElbowLeft
        {
          OFFSET -7.117820 -21.893509 -5.344217
          CHANNELS 3 Zrotation Xrotation Yrotation
          JOINT WristLeft
          {
            OFFSET 6.710441 -24.803413 10.790305
            CHANNELS 3 Zrotation Xrotation Yrotation
            JOINT HandLeft
            {
              OFFSET -1.863362 -8.034400 1.848731
              CHANNELS 3 Zrotation Xrotation Yrotation
              JOINT HandTipLeft
              {
                OFFSET -0.496410 -4.082213 -0.384240
                CHANNELS 3 Zrotation Xrotation Yrotation
                End Site
                {
                  OFFSET 0 0 0
                }
              }
              JOINT ThumbLeft
              {
                OFFSET 0.151764 -1.996046 -3.748565
                CHANNELS 3 Zrotation Xrotation Yrotation
                End Site
                {
                  OFFSET 0 0 0
                }
              }
            }
          }
        }
      }
      JOINT ShoulderRight
      {
        OFFSET 3.400250 -4.848327 -12.819089
        CHANNELS 3 Zrotation Xrotation Yrotation
        JOINT ElbowRight
        {
          OFFSET 5.929492 -22.053923 -5.486928
          CHANNELS 3 Zrotation Xrotation Yrotation
          JOINT WristRight
          {
            OFFSET -21.437938 -12.124705 4.507639
            CHANNELS 3 Zrotation Xrotation Yrotation
            JOINT HandRight
            {
              OFFSET -1.368996 1.555935 2.089220
              CHANNELS 3 Zrotation Xrotation Yrotation
              JOINT HandTipRight
              {
                OFFSET -4.532409 -1.964373 0.954628
                CHANNELS 3 Zrotation Xrotation Yrotation
                End Site
                {
                  OFFSET 0 0 0
                }
              }
              JOINT ThumbRight
              {
                OFFSET 0.063318 -2.070754 -3.287455
                CHANNELS 3 Zrotation Xrotation Yrotation
                End Site
                {
                  OFFSET 0 0 0
                }
              }
            }
          }
        }
      }
    }
  }
  JOINT HipLeft
  {
    OFFSET -3.965042 0.044387 1.815449
    CHANNELS 3 Zrotation Xrotation Yrotation
    JOINT KneeLeft
    {
      OFFSET -4.506902 -14.167048 15.023864
      CHANNELS 3 Zrotation Xrotation Yrotation
      JOINT AnkleLeft
      {
        OFFSET 18.098278 -37.174899 3.660587
        CHANNELS 3 Zrotation Xrotation Yrotation
        JOINT FootLeft
        {
          OFFSET -7.492057 -3.349087 -6.563713
          CHANNELS 3 Zrotation Xrotation Yrotation
          End Site
          {
            OFFSET 0 0 0
          }
        }
      }
    }
  }
  JOINT HipRight
  {
    OFFSET 2.697165 1.390829 -8.624039
    CHANNELS 3 Zrotation Xrotation Yrotation
    JOINT KneeRight
    {
      OFFSET 7.745928 -24.240417 4.513370
      CHANNELS 3 Zrotation Xrotation Yrotation
      JOINT AnkleRight
      {
        OFFSET 10.792870 -33.085658 6.869351
        CHANNELS 3 Zrotation Xrotation Yrotation
        JOINT FootRight
        {
          OFFSET -7.622296 -3.267819 -6.505542
          CHANNELS 3 Zrotation Xrotation Yrotation
          End Site
          {
            OFFSET 0 0 0
          }
        }
      }
    }
  }
}
MOTION
Frames: 5
Frame Time: 0.033333
61.036457 62.727659 329.814415 1.546290 -1.058133 55.086269 -0.555089 -0.115730 -55.037804 -0.381145 -0.806788 0.020658 3.899947 3.316643 -0.949892 0.000000 0.000000 0.000000 1.973082 -1.576018 0.550551 -139.211199 46.397512 89.452417 -9.186528 -68.242044 -62.171557 4.040804 -7.697003 18.301822 0.000000 0.000000 0.000000 0.000000 0.000000 0.000000 -66.470777 -8.312162 14.457697 59.267347 -3.679008 -19.861026 58.696689 16.249670 -37.986921 -34.964854 -35.575728 22.078938 0.000000 0.000000 0.000000 0.000000 0.000000 0.000000 7.546343 1.370387 -51.921004 -9.107932 -8.121672 -5.840632 2.224152 4.168810 1.625908 0.000000 0.000000 0.000000 2.264975 1.981365 -54.304457 -3.586245 -0.685862 -1.019877 2.412638 -1.991609 1.932824 0.000000 0.000000 0.000000
60.936794 61.805137 329.663808 1.251363 -0.962575 47.044229 -0.264645 -0.352848 -47.003135 -0.408656 -0.949977 0.018751 3.997439 3.452240 -0.941457 0.000000 0.000000 0.000000 1.994305 -1.616032 0.553001 -140.876481 46.045753 96.296137 -43.737547 -67.775798 -99.642786 3.247132 -3.875363 19.286237 0.000000 0.000000 0.000000 0.000000 0.000000 0.000000 -66.555004 -8.132273 14.673806 59.061595 -4.157923 -19.583320 59.289382 15.843746 -38.715964 -36.144420 -38.010988 25.507351 0.000000 0.000000 0.000000 0.000000 0.000000 0.000000 -2.928923 -0.515674 -46.319913 -1.811633 2.048582 -1.511922 0.045176 2.872508 1.825418 0.000000 0.000000 0.000000 3.425833 2.220671 -45.808650 -4.248736 -1.520212 -1.482472 2.279982 -2.243557 1.894271 0.000000 0.000000 0.000000
60.544446 61.079989 329.723681 0.691148 -1.085300 36.227893 0.145370 -0.423112 -36.202854 -0.319896 -0.974933 0.011450 4.344869 3.409163 -0.969356 0.000000 0.000000 0.000000 2.175669 -1.646796 0.562916 -142.440551 45.597697 103.374879 -80.230655 -62.420354 -137.773869 -0.318665 2.618158 20.031504 0.000000 0.000000 0.000000 0.000000 0.000000 0.000000 -66.571056 -8.092704 14.791901 59.129828 -4.414712 -19.489816 59.055747 15.958179 -38.480969 -35.582888 -39.513797 29.374018 0.000000 0.000000 0.000000 0.000000 0.000000 0.000000 -6.238901 -4.314948 -35.710636 0.116656 6.912274 -1.409410 2.257958 -0.038668 3.024741 0.000000 0.000000 0.000000 5.696396 3.457243 -34.232219 -5.525713 -3.361351 -2.483097 2.121527 -2.292144 1.946208 0.000000 0.000000 0.000000
59.962209 60.677816 329.965911 0.025304 -1.449829 25.347252 0.545587 -0.296328 -25.346638 -0.140579 -0.932598 0.003134 4.570319 3.711210 -0.938562 0.000000 0.000000 0.000000 2.410043 -1.546277 0.571046 -142.786705 45.585394 106.305369 -94.494479 -55.567239 -152.362601 -2.589986 7.166026 20.861224 0.000000 0.000000 0.000000 0.000000 0.000000 0.000000 -66.425390 -7.939844 15.065552 59.185739 -4.669904 -19.434082 58.870900 14.790896 -38.888171 -34.796574 -39.336626 32.474115 0.000000 0.000000 0.000000 0.000000 0.000000 0.000000 -4.918698 -7.822626 -23.597050 -0.279941 9.412403 -2.667868 2.171493 -0.516939 3.813087 0.000000 0.000000 0.000000 7.842362 5.804428 -22.660636 -6.973667 -5.180616 -3.564070 1.979519 -2.347019 1.895416 0.000000 0.000000 0.000000
59.239451 60.519783 330.399420 -0.754187 -1.979708 8.631412 0.872854 0.054834 -8.670036 0.075759 -0.787142 -0.009115 4.891351 4.000213 -0.918367 0.000000 0.000000 0.000000 2.738501 -1.381237 0.580771 -142.885096 45.499030 106.175952 -105.763284 -51.912077 -163.371921 -8.067178 14.945742 24.119188 0.000000 0.000000 0.000000 0.000000 0.000000 0.000000 -66.274480 -7.875744 15.322164 59.216804 -4.806494 -19.444127 59.006508 14.039434 -39.280945 -35.575580 -39.184850 31.995822 0.000000 0.000000 0.000000 0.000000 0.000000 0.000000 4.398934 -6.528277 -1.609799 -6.186432 7.253119 -7.178939 7.711847 -4.695544 5.302713 0.000000 0.000000 0.000000 8.653406 11.136608 -5.082503 -8.748478 -8.087315 -5.232159 1.871401 -2.286760 1.878351 0.000000 0.000000 0.000000
